<?xml version="1.0" standalone="no"?>
<!DOCTYPE svg PUBLIC "-//W3C//DTD SVG 20010904//EN"
 "http://www.w3.org/TR/2001/REC-SVG-20010904/DTD/svg10.dtd">
<svg version="1.0" xmlns="http://www.w3.org/2000/svg"
 width="400.000000pt" height="400.000000pt" viewBox="0 0 400.000000 400.000000"
 preserveAspectRatio="xMidYMid meet">

<g transform="translate(0.000000,400.000000) scale(0.100000,-0.100000)"
fill="#000000" stroke="none">
<path d="M0 2000 l0 -2000 2000 0 2000 0 0 2000 0 2000 -2000 0 -2000 0 0
-2000z m2537 525 c49 47 74 60 50 25 -29 -41 -1312 -1330 -1324 -1330 -23 0
-14 15 47 73 l60 58 2 714 3 713 276 -268 275 -269 280 280 279 279 3 -160 2
-161 47 46z m191 -653 c3 -76 -24 -200 -56 -252 -51 -83 -71 -111 -122 -160
-62 -62 -119 -97 -212 -131 -53 -19 -83 -23 -188 -23 -134 0 -179 11 -287 72
-50 27 -173 142 -173 161 0 13 145 161 158 161 5 0 17 -11 26 -25 73 -111 203
-162 349 -137 81 14 126 38 180 96 28 29 77 106 77 120 0 1 -41 -1 -92 -2 -50
-2 -115 -1 -145 3 l-53 6 0 95 0 94 268 -2 267 -3 3 -73z"/>
<path d="M1580 1905 l0 -329 48 46 c26 25 100 97 165 160 l118 115 -165 169
-166 169 0 -330z"/>
</g>
</svg>
